<svg xmlns="http://www.w3.org/2000/svg" viewBox="0 0 59.12 58"><defs><style>.cls-1{fill:none;}</style></defs><title>bicycle</title><g id="Layouts"><rect class="cls-1" width="59.12" height="58"/><path d="M37.93,24.73a6.05,6.05,0,0,0-1.59.22l-1.1-2.77H25.72l.8-2.44a1.62,1.62,0,0,1,1.54-1.12h2.08V17.28H28.06a3,3,0,0,0-2.82,2l-1.81,5.54a6.1,6.1,0,1,0,1.28.42l.57-1.75h9l.76,1.91a6.07,6.07,0,1,0,2.85-.71Zm-12.71,3a4.36,4.36,0,1,1-2.35-1.19l-1.31,4,1.28.42,1.31-4A4.31,4.31,0,0,1,25.22,27.78Zm15.73,6a4.27,4.27,0,0,1-6-6,4.32,4.32,0,0,1,.84-.65l1.55,3.92,1.25-.5L37,26.64A4.27,4.27,0,0,1,41,33.82Z"/><polygon points="37.29 21.4 37.82 19.79 32.99 19.79 33.55 21.4 37.29 21.4"/></g></svg>