<svg xmlns="http://www.w3.org/2000/svg" viewBox="0 0 59.12 58"><defs><style>.cls-1{fill:none;}</style></defs><title>bus</title><g id="Layouts"><rect class="cls-1" width="59.12" height="58"/><g id="txt"><g id="icon_11943" data-name="icon 11943"><path d="M40.68,20.3h-23a1.7,1.7,0,0,0-1.61,1.17L14.42,26.6a4.88,4.88,0,0,0-.24,1.53v7.31H18s0-.08,0-.12a3.68,3.68,0,1,1,7.35,0s0,.08,0,.12h9.08s0-.08,0-.12a3.68,3.68,0,1,1,7.35,0s0,.08,0,.12H45V24.62A4.32,4.32,0,0,0,40.68,20.3ZM20.1,30.35a.44.44,0,0,1-.44.44H17.24a.44.44,0,0,1-.44-.44V28.11a2.7,2.7,0,0,1,.13-.84l1.42-4.38a.44.44,0,0,1,.42-.3h.89a.44.44,0,0,1,.44.44v7.33ZM27.86,27a.22.22,0,0,1-.22.22h-5a.22.22,0,0,1-.22-.22V22.81a.22.22,0,0,1,.22-.22h5a.22.22,0,0,1,.22.22Zm7.5,0a.22.22,0,0,1-.22.22H29.92A.22.22,0,0,1,29.7,27V22.81a.22.22,0,0,1,.22-.22h5.22a.22.22,0,0,1,.22.22V27Zm7-.22a.44.44,0,0,1-.44.44h-4a.44.44,0,0,1-.44-.44V23a.44.44,0,0,1,.44-.44h2.36a2.1,2.1,0,0,1,2.1,2.1Z"/><path d="M21.67,32.61a2.71,2.71,0,1,0,2.71,2.71A2.71,2.71,0,0,0,21.67,32.61Zm0,3.85a1.13,1.13,0,1,1,1.13-1.13A1.13,1.13,0,0,1,21.67,36.46Z"/><path d="M38.08,32.61a2.71,2.71,0,1,0,2.71,2.71A2.71,2.71,0,0,0,38.08,32.61Zm0,3.85a1.13,1.13,0,1,1,1.13-1.13A1.13,1.13,0,0,1,38.08,36.46Z"/></g></g></g></svg>