<svg xmlns="http://www.w3.org/2000/svg" viewBox="0 0 59.12 58"><defs><style>.cls-1{fill:none;}</style></defs><title>car</title><g id="Layouts"><rect class="cls-1" width="59.12" height="58"/><path d="M44.41,26.12,42.2,22.61a4.08,4.08,0,0,0-3.45-1.91H28.47a6.44,6.44,0,0,0-4.6,1.93l-2.93,3-7,1.62a2.58,2.58,0,0,0-2,2.51V32.5A1.07,1.07,0,0,0,13,33.57h3.72c0,.07,0,.15,0,.22a3.5,3.5,0,0,0,7,0c0-.07,0-.15,0-.22h11c0,.07,0,.15,0,.22a3.5,3.5,0,0,0,7,0c0-.07,0-.15,0-.22h2.39a1.07,1.07,0,0,0,1.07-1.07V28.75A4.93,4.93,0,0,0,44.41,26.12ZM20.24,35.19a1.39,1.39,0,1,1,1.39-1.39A1.39,1.39,0,0,1,20.24,35.19Zm8.85-8.8h-6.3l2.41-2.46a4.62,4.62,0,0,1,3.28-1.37h.62v3.84Zm7.19,0H30.71V22.55h5.57Zm1.94,8.8a1.39,1.39,0,1,1,1.39-1.39A1.4,1.4,0,0,1,38.22,35.19Zm-.32-8.8V22.55h.85a2.21,2.21,0,0,1,1.89,1l1.76,2.79H37.9Z"/></g></svg>