<svg xmlns="http://www.w3.org/2000/svg" viewBox="0 0 87 64"><title>検討スタンプ</title><g id="Layouts"><path fill="#EE632C" d="M33.32,31.33l3.86-1.13a21,21,0,0,0,2.61-.9c.23,1.12.39,1.78.64,2.65l1.31,4.45a22.35,22.35,0,0,0,.83,2.36,26.55,26.55,0,0,0-2.9.72l-2.49.73a13,13,0,0,0,8.49,1.39A19.3,19.3,0,0,0,45,47a16.64,16.64,0,0,1-5.54-.91,13.06,13.06,0,0,1-4.68-2.58c-.88,3.57-2.56,5.79-6.35,8.29A15.49,15.49,0,0,0,24.75,48c3.39-1.7,4.71-3.07,5.65-5.85l-1.93.57a25.94,25.94,0,0,0-2.79,1c-.2-.92-.32-1.33-.54-2.07l-1.33-4.51a29,29,0,0,0-.24,4.13,11.52,11.52,0,0,1-2.27-2.31c.28.83.58,1.75,1,3.12l2,6.66a38.18,38.18,0,0,0,1.37,4l-4.88,1.43a39,39,0,0,0-1-4.07l-1.21-4.11c-.21-.72-.57-2.06-.8-3.08a20,20,0,0,1-.81,5.64,24.67,24.67,0,0,0-3.26-4.75,21.93,21.93,0,0,0,1.11-9.35l-.75.22a9.1,9.1,0,0,0-2,.75l-1.36-4.63a9,9,0,0,0,2.07-.44L13.8,30l-.59-2a23.44,23.44,0,0,0-1.15-3.21L17,23.32a23.75,23.75,0,0,0,.77,3.32l.59,2,.56-.17A6.6,6.6,0,0,0,20.27,28l.36,1.21a22.13,22.13,0,0,0,2.27-2.73A12.74,12.74,0,0,0,25.24,21l4.67-1.37A11.81,11.81,0,0,0,35,22.38a19.8,19.8,0,0,0,5.33.9,23.27,23.27,0,0,0-.73,5,21.78,21.78,0,0,1-3.77-.75l.51,1.74c-.54.13-1.08.25-2.26.6L33,30.18ZM28,31.64a22.27,22.27,0,0,0-2.22.72l-.48-1.62a29.33,29.33,0,0,1-2.14,2.39,21.71,21.71,0,0,0-2-2.14l.46,1.56a6.38,6.38,0,0,0-1.37.27l-.47.14a12.57,12.57,0,0,0,3.77,3.29c-.28-.83-.42-1.3-.66-1.9a26,26,0,0,0,2.6-.7l3.61-1.06-.34-1.15Zm3.91-5.54a13.77,13.77,0,0,1-3.11-2,15.56,15.56,0,0,1-1.34,3.27ZM28.15,36.73l.6,2.05,1.8-.53c-.16-.77-.23-1.12-.45-2.1Zm6.16-1.81c.23.88.28,1.17.48,2.09l2.27-.67-.6-2.05Z"/><path fill="#EE632C" d="M41.46,16.7A23.53,23.53,0,0,0,44.33,16l5.2-1.53a23.61,23.61,0,0,0,2.79-1l1.07,3.64c-.86.18-1.49.34-2.86.74l-5.2,1.53c-1.34.39-2,.63-2.8.92Zm.19,4.78a14.59,14.59,0,0,0,2.57-.58l7.65-2.25a25.42,25.42,0,0,0,2.49-.83L55.58,22a15.91,15.91,0,0,0-2.49.63l-7.72,2.27a20.21,20.21,0,0,0-2.48.87Zm2.65,4.76a16.32,16.32,0,0,0,1.88-.49l7.19-2.11a13.78,13.78,0,0,0,1.76-.58l1,3.52a15,15,0,0,0-1.79.46l-7.19,2.11a16.29,16.29,0,0,0-1.85.61Zm1.31,4.45a16.13,16.13,0,0,0,1.88-.49l7.16-2.1a14.28,14.28,0,0,0,1.79-.59l1,3.52a16.6,16.6,0,0,0-1.88.49l-7.16,2.1a15.67,15.67,0,0,0-1.79.59Zm4,14.9c-.19-1-.45-2.1-.74-3.09l-1.47-5a17.55,17.55,0,0,0-.8-2.27A22.71,22.71,0,0,0,49,34.61L56,32.53a10,10,0,0,0,1.9-.66A20.81,20.81,0,0,0,58.44,34L60,39.43c.29,1,.52,1.64.81,2.4l-4.48,1.32-.25-.84-2.3.68.38,1.28Zm3-6.25,2.43-.71L54.5,36.7l-2.43.71Zm21.12-5.76c.63,2.15.4,3.43-.69,4.33-.79.64-2.15,1.2-4.92,2-.75.22-1.35.36-2.61.67A19.72,19.72,0,0,0,63,36.12c1.74-.31,3.39-.66,4.48-1s1.41-.62,1.23-1.21L64.85,20.75l-4.51,1.33a36.77,36.77,0,0,0-3.71,1.29l-1.41-4.79a29.44,29.44,0,0,0,3.76-.9l4.57-1.34-.59-2a34.87,34.87,0,0,0-1.37-4l5.1-1.5a34.53,34.53,0,0,0,1,4.1l.59,2a23.28,23.28,0,0,0,2.93-1.06l1.4,4.76a27,27,0,0,0-3,.72ZM60.26,23.41A41.4,41.4,0,0,1,66.5,29.9l-3.61,3.7a34.73,34.73,0,0,0-5.95-6.91Z"/><path fill="#EE632C" d="M20.88,63.39A14.4,14.4,0,0,1,7.08,53.06L1.41,33.78a14.39,14.39,0,0,1,9.74-17.84L62.76.78A14.37,14.37,0,0,1,80.6,10.52L86.27,29.8a14.37,14.37,0,0,1-9.74,17.84L24.92,62.8A14.31,14.31,0,0,1,20.88,63.39ZM66.81,6.19a8.35,8.35,0,0,0-2.36.34L12.85,21.69a8.38,8.38,0,0,0-5.67,10.4l5.66,19.28A8.38,8.38,0,0,0,23.23,57L74.84,41.89a8.37,8.37,0,0,0,5.67-10.4L74.85,12.21A8.39,8.39,0,0,0,66.81,6.19Z"/></g></svg>