<svg xmlns="http://www.w3.org/2000/svg" viewBox="0 0 87 64"><title>参加スタンプ</title><g id="Layouts"><path fill="#2979FF" d="M25.08,34.12a20,20,0,0,1-5.93,6.95,23.1,23.1,0,0,0,6.63-4.58,12.47,12.47,0,0,0,1.84-2.37l4,1.37a29.44,29.44,0,0,1-4.52,4.74,29.81,29.81,0,0,1-6.78,4.29A9.35,9.35,0,0,0,17.81,42c-.61.45-1.13.77-2.18,1.45a14.11,14.11,0,0,0-3.29-3.26,19.12,19.12,0,0,0,6-4.12l-1.71.5c-1.34.39-2.81.89-4,1.37l-1.24-4.23a34.06,34.06,0,0,0,4-1l6-1.75a6.16,6.16,0,0,0,.18-1.34c-3.19,1-3.19,1-6.23,1.93-.5.15-.87.26-1.6.54l-1.65-3.88c1.05-.21,2.32-.51,4.49-1.15A21.64,21.64,0,0,0,18,22.57l5.37-.6c-.11.3-.11.3-.41,1-.35,1-.63,1.64-1,2.57,2-.59,4.34-1.34,6.23-2-.71-.33-1.06-.5-2-.92l3.14-2.88A48.59,48.59,0,0,1,37.72,24l-3.13,3.15,1.37-.4a32.23,32.23,0,0,0,4-1.37l1.24,4.23a33.7,33.7,0,0,0-4,1l-2.77.81a16.26,16.26,0,0,0,8.11.35,14.36,14.36,0,0,0-.54,5,22.17,22.17,0,0,1-13.3-3.63ZM36.36,37.3a28,28,0,0,1-5.62,6.18A38.56,38.56,0,0,1,21.45,49a9.77,9.77,0,0,0-2.86-2.84,31.69,31.69,0,0,0,10.84-6.6,13.85,13.85,0,0,0,2.9-3.49Zm5.41,1.62C39,43,38.21,44,36,46c-3.31,3.1-7.13,5.41-12.73,7.76a12.81,12.81,0,0,0-3.36-3.37c6.53-2.29,11-5.06,14.72-9.12a16.78,16.78,0,0,0,2.52-3.51ZM34.25,27.24c-1.44-1-1.44-1-2-1.34-1.57.63-3.37,1.29-5.46,2-.09.74-.11,1.11-.21,1.58Z"/><path fill="#2979FF" d="M53.18,18.16c1.71-.5,2.67-.82,3.67-1.21.2,1,.35,1.52.8,3.18C63,38.87,63,41,58.06,42.48c-.68.2-1.5.41-2.62.63a17.35,17.35,0,0,0-2.16-4.37,16.41,16.41,0,0,0,2.46-.38c1-.28,1.07-.62.77-2.66-.43-3.08-1.16-6-3.07-12.75l-1.62.47a47.17,47.17,0,0,1,1.57,12.14,29.58,29.58,0,0,1-1.63,9.54,17.78,17.78,0,0,0-4.9-3.56,22.22,22.22,0,0,0,1.49-7.23,37,37,0,0,0-1.21-9.51l-1.06.31a21.65,21.65,0,0,0-2.94,1l-1.41-4.79a24.83,24.83,0,0,0,3.47-.85l.81-.24-.49-1.68a28.24,28.24,0,0,0-1.11-3.19l5-1.48a18.57,18.57,0,0,0,.77,3.19c.19.76.27,1,.46,1.79Zm16.28,21L64.67,40.6a29.88,29.88,0,0,0-.87-3.66L58.15,17.71A26.41,26.41,0,0,0,57,14.49a27.61,27.61,0,0,0,3-.74l6.56-1.93a24.8,24.8,0,0,0,2.89-1,25.67,25.67,0,0,0,.8,3.31l5.56,18.92a25.47,25.47,0,0,0,1.32,3.8L72.28,38.3l-.66-2.24-2.83.83Zm-2-6.66,2.83-.83L66,16.8l-2.83.83Z"/><path fill="#2979FF" d="M20.88,63.39A14.4,14.4,0,0,1,7.08,53.06L1.41,33.78a14.39,14.39,0,0,1,9.74-17.84L62.76.78A14.37,14.37,0,0,1,80.6,10.52L86.27,29.8a14.37,14.37,0,0,1-9.74,17.84L24.92,62.8A14.31,14.31,0,0,1,20.88,63.39ZM66.81,6.19a8.35,8.35,0,0,0-2.36.34L12.85,21.69a8.38,8.38,0,0,0-5.67,10.4l5.66,19.28A8.38,8.38,0,0,0,23.23,57L74.84,41.89a8.37,8.37,0,0,0,5.67-10.4L74.85,12.21A8.39,8.39,0,0,0,66.81,6.19Z"/></g></svg>