<svg xmlns="http://www.w3.org/2000/svg" viewBox="0 0 59.12 58"><defs><style>.cls-1{fill:none;}</style></defs><title>walk</title><g id="Layouts"><rect class="cls-1" width="59.12" height="58"/><path d="M28.1,19.68a2.34,2.34,0,1,0-2.34-2.34A2.34,2.34,0,0,0,28.1,19.68Z"/><path d="M37,26.39l-1.55-2.33A4.33,4.33,0,0,0,34,22.72l-3-1.7a2.58,2.58,0,0,0-1.51-.35l-1.46.2a2.17,2.17,0,0,0-1.38.77l-2.77,2.95-2.54.94a1,1,0,0,0-.59,1.19v0a1,1,0,0,0,1.14.65l2.07-.48a4.32,4.32,0,0,0,1.44-.63l1.44-1,.51,3.86a1.3,1.3,0,0,1-.16.82l-4.31,7.48A1.12,1.12,0,0,0,23.24,39l0,0a1.12,1.12,0,0,0,1.48-.33l4.81-6.88L31,34.73a2.17,2.17,0,0,0,.42.58l3.23,3.16a1.09,1.09,0,0,0,1.48,0l.05,0a1.09,1.09,0,0,0,.09-1.55l-2.73-3L32.1,28.51h0l-.43-4.2,1.5.68,2.41,2.53a.89.89,0,0,0,1.15.12l0,0A.89.89,0,0,0,37,26.39Z"/></g></svg>