<svg xmlns="http://www.w3.org/2000/svg" viewBox="0 0 24 24"><title>名称未設定-1</title><path d="M302,274.43c0-3.55-4-6.43-9-6.43s-9,2.88-9,6.43,4,6.43,9,6.43a12.19,12.19,0,0,0,3.19-.42l5.81,3.32-2.08-5.21A5.45,5.45,0,0,0,302,274.43Zm-13.5,1.13a1.13,1.13,0,1,1,1.13-1.12A1.12,1.12,0,0,1,288.5,275.55Zm4.5,0a1.13,1.13,0,1,1,1.13-1.12A1.12,1.12,0,0,1,293,275.55Zm4.5,0a1.13,1.13,0,1,1,1.13-1.12A1.12,1.12,0,0,1,297.5,275.55Z" transform="translate(-278 -268)" style="fill:#358"/><path d="M293,282.36l-.43,0a1.11,1.11,0,0,1,.06.34,1.13,1.13,0,0,1-2.25,0,1.11,1.11,0,0,1,.15-.55c-3.53-.65-6.36-2.64-7.49-5.21-3,1-5,3.23-5,5.76a5.45,5.45,0,0,0,2.08,4.11L278,292l5.81-3.32a12.19,12.19,0,0,0,3.19.42c5,0,9-2.88,9-6.43a4.67,4.67,0,0,0,0-.65A13.63,13.63,0,0,1,293,282.36Zm-10.5,1.45a1.13,1.13,0,1,1,1.13-1.12A1.12,1.12,0,0,1,282.5,283.8Zm4.5,0a1.13,1.13,0,1,1,1.13-1.12A1.12,1.12,0,0,1,287,283.8Z" transform="translate(-278 -268)" style="fill:#358"/><path d="M302,274.43c0-3.55-4-6.43-9-6.43s-9,2.88-9,6.43,4,6.43,9,6.43a12.19,12.19,0,0,0,3.19-.42l5.81,3.32-2.08-5.21A5.45,5.45,0,0,0,302,274.43Zm-13.5,1.13a1.13,1.13,0,1,1,1.13-1.12A1.12,1.12,0,0,1,288.5,275.55Zm4.5,0a1.13,1.13,0,1,1,1.13-1.12A1.12,1.12,0,0,1,293,275.55Zm4.5,0a1.13,1.13,0,1,1,1.13-1.12A1.12,1.12,0,0,1,297.5,275.55Z" transform="translate(-278 -268)" style="fill:#358"/><path d="M293,282.36l-.43,0a1.11,1.11,0,0,1,.06.34,1.13,1.13,0,0,1-2.25,0,1.11,1.11,0,0,1,.15-.55c-3.53-.65-6.36-2.64-7.49-5.21-3,1-5,3.23-5,5.76a5.45,5.45,0,0,0,2.08,4.11L278,292l5.81-3.32a12.19,12.19,0,0,0,3.19.42c5,0,9-2.88,9-6.43a4.67,4.67,0,0,0,0-.65A13.63,13.63,0,0,1,293,282.36Zm-10.5,1.45a1.13,1.13,0,1,1,1.13-1.12A1.12,1.12,0,0,1,282.5,283.8Zm4.5,0a1.13,1.13,0,1,1,1.13-1.12A1.12,1.12,0,0,1,287,283.8Z" transform="translate(-278 -268)" style="fill:#358"/></svg>