<svg xmlns="http://www.w3.org/2000/svg" xmlns:xlink="http://www.w3.org/1999/xlink" viewBox="0 0 24 24"><defs><mask id="a" x="0" y="-1" width="24" height="10" maskUnits="userSpaceOnUse"><rect width="24" height="9" style="fill:#fff"/><circle cx="6" cy="3" r="2" style="fill:none;stroke:#000;stroke-miterlimit:10;stroke-width:4px"/><circle cx="18" cy="3" r="2" style="fill:none;stroke:#000;stroke-miterlimit:10;stroke-width:4px"/><rect x="6" y="3" width="4" height="4" style="fill:#fff"/><rect x="18" y="3" width="4" height="4" style="fill:#fff"/><circle cx="6" cy="5" r="2"/><circle cx="18" cy="5" r="2"/><rect x="18" y="3" width="2" height="2"/><rect x="6" y="3" width="2" height="2"/></mask><mask id="b" x="2" y="-1" width="8" height="8" maskUnits="userSpaceOnUse"><rect x="2" y="-1" width="8" height="8" style="fill:#fff"/><rect x="6" y="2" width="4" height="1"/><rect x="6" y="3" width="3" height="3"/><circle cx="6" cy="5" r="1" style="fill:#fff"/></mask><mask id="c" x="14" y="-1" width="8" height="8" maskUnits="userSpaceOnUse"><rect x="14" y="-1" width="8" height="8" style="fill:#fff"/><rect x="18" y="2" width="4" height="1"/><rect x="18" y="3" width="3" height="3"/><circle cx="18" cy="5" r="1" style="fill:#fff"/></mask><symbol id="d" viewBox="0 0 24 24"><g style="mask:url(#a)"><rect y="3" width="24" height="6" style="fill:#888"/></g><g style="mask:url(#b)"><circle cx="6" cy="3" r="2" style="fill:none;stroke:#888;stroke-miterlimit:10;stroke-width:2px"/></g><g style="mask:url(#c)"><circle cx="18" cy="3" r="2" style="fill:none;stroke:#888;stroke-miterlimit:10;stroke-width:2px"/></g><path d="M0,10V24H24V10Zm5,6H3V14H5Zm4,0H7V14H9Zm4,0H11V14h2Zm4,0H15V14h2Zm4,0H19V14h2Zm-4,4H15V18h2Zm-4,0H11V18h2ZM9,20H7V18H9ZM5,20H3V18H5Z" style="fill:#888"/></symbol></defs><title>1名称未設定-1</title><use width="24" height="24" xlink:href="#d"/></svg>