<?xml version="1.0" encoding="utf-8"?>
<!-- Generator: Adobe Illustrator 16.0.4, SVG Export Plug-In . SVG Version: 6.00 Build 0)  -->
<!DOCTYPE svg PUBLIC "-//W3C//DTD SVG 1.1//EN" "http://www.w3.org/Graphics/SVG/1.1/DTD/svg11.dtd">
<svg version="1.1" xmlns="http://www.w3.org/2000/svg" xmlns:xlink="http://www.w3.org/1999/xlink" x="0px" y="0px" width="24px"
	 height="24px" viewBox="36 -4 24 24" enable-background="new 36 -4 24 24" xml:space="preserve">
<g id="レイヤー_1" display="none">
	<title>名称未設定-1</title>
	<path display="inline" fill="#335588" d="M56,4.287C56,1.92,53.334,0,50,0c-3.333,0-6,1.92-6,4.287s2.667,4.287,6,4.287
		c0.719,0.001,1.434-0.093,2.127-0.28L56,10.507l-1.387-3.474C55.459,6.368,55.967,5.362,56,4.287z M47,5.04
		c-0.416,0-0.753-0.337-0.753-0.753S46.584,3.533,47,3.533s0.753,0.337,0.753,0.753c0,0.002,0,0.004,0,0.007
		C47.75,4.706,47.413,5.037,47,5.033l0,0V5.04z M50,5.04c-0.416,0-0.754-0.337-0.754-0.753S49.584,3.533,50,3.533
		s0.754,0.337,0.754,0.753c0,0.002,0,0.004,0,0.007C50.75,4.706,50.412,5.037,50,5.033l0,0V5.04z M53,5.04
		c-0.416,0-0.754-0.337-0.754-0.753S52.584,3.533,53,3.533s0.754,0.337,0.754,0.753c0,0.002,0,0.004,0,0.007
		C53.75,4.706,53.412,5.037,53,5.033l0,0V5.04z"/>
	<path display="inline" fill="#335588" d="M50,9.573h-0.287c0.025,0.073,0.039,0.149,0.041,0.227
		c-0.039,0.415-0.407,0.718-0.821,0.679c-0.36-0.033-0.646-0.318-0.679-0.679c0-0.129,0.035-0.255,0.1-0.366
		C46,9,44.113,7.673,43.36,5.96c-2,0.667-3.333,2.153-3.333,3.84c0.034,1.073,0.542,2.077,1.386,2.74L40,16l3.873-2.213
		c0.694,0.187,1.409,0.281,2.127,0.279c3.334,0,6-1.92,6-4.287c0.01-0.144,0.01-0.289,0-0.433C51.344,9.496,50.673,9.572,50,9.573z
		 M43,10.54c-0.416,0-0.753-0.337-0.753-0.753S42.584,9.033,43,9.033s0.753,0.338,0.753,0.754c0,0.002,0,0.004,0,0.006
		c-0.004,0.412-0.341,0.744-0.753,0.74l0,0V10.54z M46,10.54c-0.416,0-0.753-0.337-0.753-0.753S45.584,9.033,46,9.033
		s0.753,0.338,0.753,0.754c0,0.002,0,0.004,0,0.006c-0.004,0.412-0.341,0.744-0.753,0.74l0,0V10.54z"/>
	<path display="inline" fill="#335588" d="M56,4.287C56,1.92,53.334,0,50,0c-3.333,0-6,1.92-6,4.287s2.667,4.287,6,4.287
		c0.719,0.001,1.434-0.093,2.127-0.28L56,10.507l-1.387-3.474C55.459,6.368,55.967,5.362,56,4.287z M47,5.04
		c-0.416,0-0.753-0.337-0.753-0.753S46.584,3.533,47,3.533s0.753,0.337,0.753,0.753c0,0.002,0,0.004,0,0.007
		C47.75,4.706,47.413,5.037,47,5.033l0,0V5.04z M50,5.04c-0.416,0-0.754-0.337-0.754-0.753S49.584,3.533,50,3.533
		s0.754,0.337,0.754,0.753c0,0.002,0,0.004,0,0.007C50.75,4.706,50.412,5.037,50,5.033l0,0V5.04z M53,5.04
		c-0.416,0-0.754-0.337-0.754-0.753S52.584,3.533,53,3.533s0.754,0.337,0.754,0.753c0,0.002,0,0.004,0,0.007
		C53.75,4.706,53.412,5.037,53,5.033l0,0V5.04z"/>
	<path display="inline" fill="#335588" d="M50,9.573h-0.287c0.025,0.073,0.039,0.149,0.041,0.227
		c-0.039,0.415-0.407,0.718-0.821,0.679c-0.36-0.033-0.646-0.318-0.679-0.679c0-0.129,0.035-0.255,0.1-0.366
		C46,9,44.113,7.673,43.36,5.96c-2,0.667-3.333,2.153-3.333,3.84c0.034,1.073,0.542,2.077,1.386,2.74L40,16l3.873-2.213
		c0.694,0.187,1.409,0.281,2.127,0.279c3.334,0,6-1.92,6-4.287c0.01-0.144,0.01-0.289,0-0.433C51.344,9.496,50.673,9.572,50,9.573z
		 M43,10.54c-0.416,0-0.753-0.337-0.753-0.753S42.584,9.033,43,9.033s0.753,0.338,0.753,0.754c0,0.002,0,0.004,0,0.006
		c-0.004,0.412-0.341,0.744-0.753,0.74l0,0V10.54z M46,10.54c-0.416,0-0.753-0.337-0.753-0.753S45.584,9.033,46,9.033
		s0.753,0.338,0.753,0.754c0,0.002,0,0.004,0,0.006c-0.004,0.412-0.341,0.744-0.753,0.74l0,0V10.54z"/>
</g>
<g id="レイヤー_2">
	<g>
		<path fill="#FFFFFF" d="M56.587,16.677c-0.598,0.597-1.404,0.758-1.803,0.358l-4.938-4.938c-0.397-0.397-0.238-1.205,0.358-1.802
			l0.091-0.091c0.598-0.597,1.405-0.757,1.803-0.359l4.938,4.939c0.398,0.398,0.238,1.204-0.359,1.802L56.587,16.677z"/>
		<path fill="#FFFFFF" d="M51.393,0.915c2.894,2.894,2.894,7.585,0,10.478c-2.893,2.894-7.584,2.894-10.478,0
			c-2.893-2.893-2.893-7.584,0-10.478C43.808-1.979,48.5-1.979,51.393,0.915z M42.654,2.656c-1.932,1.931-1.932,5.064,0,6.997
			c1.932,1.933,5.066,1.933,6.997,0.002c1.934-1.934,1.934-5.067,0.001-6.999C47.721,0.723,44.587,0.723,42.654,2.656z"/>
	</g>
</g>
</svg>
