<svg xmlns="http://www.w3.org/2000/svg" viewBox="0 0 339.53 33.33"><title>名称未設定-1</title><path d="M123.43,266.61v18.68h-3.85V266.61Zm-1.22,26.6c7.56-.36,10.94-1.22,14-3.56,3.31-2.66,4.36-5.76,4.39-13.07V265.92h3.85v10.62c-.07,8.35-1.3,12.31-4.79,15.41-3.89,3.28-7.49,4.46-15.84,5.11Z" transform="translate(-119.58 -263.73)" style="fill:#fff"/><path d="M156.62,272.11v-6.62h3.82v6.62h11.81v-7.56h3.85v7.56h6.48v3.71h-6.48c-.18,13.57-3.78,18.29-15.62,20.45l-2.2-3.64c5.62-.72,8.53-1.87,11-4.46,2.16-2.59,2.84-5.4,3-12.35H160.43v9.57h-3.82v-9.57h-6.77v-3.71Z" transform="translate(-119.58 -263.73)" style="fill:#fff"/><path d="M216,278.41v3.82H185.49v-3.82Z" transform="translate(-119.58 -263.73)" style="fill:#fff"/><path d="M235.34,270.6c-3.56.54-5.33.76-11.41,1.22l-1.51-3.46c11.66-.76,16.7-1.62,24.37-4.07l2.12,3a58.34,58.34,0,0,1-9.72,2.59v6.8h13.1v3.74H239c-.68,8.64-3.35,12.89-9.86,15.73l-2.74-3.2c6-2.23,8.14-5.33,8.78-12.53H220.62v-3.74h14.72Z" transform="translate(-119.58 -263.73)" style="fill:#fff"/><path d="M273.83,269.13v-5.4h3.82v5.4H286v3.71h-8.35v16.59c.07,4.14-1.12,5.29-5.69,5.4h-4l-1.12-3.92c2.7.22,3.28.22,4.1.22,1.91,0,2.88-.79,2.88-2.41V276.54a47.48,47.48,0,0,1-16.92,14.15l-2.7-3.56c7.27-2.84,12.13-6.8,17.6-14.29H255.48v-3.71Z" transform="translate(-119.58 -263.73)" style="fill:#fff"/><path d="M292.44,266.18a72.51,72.51,0,0,1,10.15,7l-2.38,3.17a108.64,108.64,0,0,0-10.11-7.16Zm-2.23,24.73c9.83-1,15.37-3.1,19.94-7.34,3.85-3.71,5.87-7.74,6.95-13.93l3.6,2c-3.67,14.9-11.91,21.45-29.37,23.29Z" transform="translate(-119.58 -263.73)" style="fill:#fff"/><path d="M324.13,275.32h31V279h-13c-.22,9.32-3.64,14.54-11.41,17.42l-2.84-3.2c4.43-1.48,6.48-2.84,8.46-5.58,1.33-2.05,1.8-4.18,1.94-8.64H324.13Zm3.71-5.8v-3.71h19.55v3.71Zm23.43-3.6a44.07,44.07,0,0,1,3.06,6.44l-2.27,1.08a35.89,35.89,0,0,0-2.88-6.48Zm4-2.05a50.61,50.61,0,0,1,3.06,6.44l-2.16,1.19a52.23,52.23,0,0,0-3.1-6.55Z" transform="translate(-119.58 -263.73)" style="fill:#fff"/><path d="M391.71,266.64c-.83,7.49-4.46,13.1-13,20a67.86,67.86,0,0,1,5.54,5.8l-3.06,2.81a118.88,118.88,0,0,0-16.85-16.74l3-2.63c3.28,2.66,4.75,3.92,9,7.81,5.51-4.57,8.5-8.28,10.62-13.39H361.83v-3.71Z" transform="translate(-119.58 -263.73)" style="fill:#fff"/><path d="M398.64,266.18a72.55,72.55,0,0,1,10.15,7l-2.38,3.17a108.64,108.64,0,0,0-10.11-7.16Zm-2.23,24.73c9.83-1,15.37-3.1,19.94-7.34,3.85-3.71,5.87-7.74,6.95-13.93l3.6,2c-3.67,14.9-11.91,21.45-29.37,23.29Z" transform="translate(-119.58 -263.73)" style="fill:#fff"/><path d="M437.84,265v9.32a122,122,0,0,1,18.54,7.49l-1.91,4A104.72,104.72,0,0,0,437.84,278v17.67H434V265Zm11.3,1.62a54,54,0,0,1,6.19,6.48l-2.09,2a35.61,35.61,0,0,0-6.12-6.62Zm3.92-2.88a42.1,42.1,0,0,1,6,6.26l-2.05,1.84a49.64,49.64,0,0,0-5.94-6.37Z" transform="translate(-119.58 -263.73)" style="fill:#fff"/></svg>